# xmcd
#
# Track frame offsets: 
#        150
#        38766
#        56641
#        75460
#        90030
#        125716
#        142996
#        157673
#        184512
#        213836
#
# Disc length: 3006 seconds
#
# Revision: 0
# Processed by: cddbd v1.5.2PL0 Copyright (c) Steve Scherf et al.
# Submitted via: ExactAudioCopy v0.99pb5
#
DISCID=6e0bbc0a
DTITLE=Leszek Winder - Blues Forever
DYEAR=1985
DGENRE=Blues
TTITLE0=01.Rock me now
TTITLE1=02.Gram co chce
TTITLE2=03.Blues o slonym paluszku
TTITLE3=04.Glajza
TTITLE4=05.Blues dla dzidkaII/Abym mogl przed siebie isc
TTITLE5=06.Nigdy cie nie zapomne.....
TTITLE6=07.Mysle dzwiekami
TTITLE7=08.Blues o smierci
TTITLE8=09.Wilczyca
TTITLE9=10.Blues okularnika
EXTD=
EXTT0=
EXTT1=
EXTT2=
EXTT3=
EXTT4=
EXTT5=
EXTT6=
EXTT7=
EXTT8=
EXTT9=
PLAYORDER=
